<svg width="179" height="161" viewBox="0 0 179 161" fill="none" xmlns="http://www.w3.org/2000/svg">
<path d="M134.169 105.16L167.872 71.4751C174.072 71.0517 179 65.9325 179 59.6296C179 53.3268 174.072 48.2076 167.869 47.7842L131.267 11.2044L131.267 2.98149C131.267 1.33273 129.933 1.13591e-05 128.283 1.12149e-05L119.333 1.04325e-05L107.4 9.38921e-06L2.98333 2.60811e-07C1.33355 1.16583e-07 -1.1651e-07 1.33272 -2.60649e-07 2.98148L-3.12779e-06 35.7778C-3.27193e-06 37.4265 1.33355 38.7593 2.98333 38.7593L11.9333 38.7593L119.333 38.7593L128.283 38.7593C129.718 38.7593 130.861 37.7277 131.144 36.38L154.408 59.6296L121.514 92.5064C115.312 92.9298 110.383 98.049 110.383 104.352C110.383 107.351 111.532 110.061 113.367 112.157L113.367 146.093L35.8 146.093C34.1502 146.093 32.8167 147.425 32.8167 149.074L32.8167 158.019C32.8167 159.667 34.1502 161 35.8 161L167.067 161C168.716 161 170.05 159.667 170.05 158.019L170.05 149.074C170.05 147.425 168.716 146.093 167.067 146.093L128.283 146.093L128.283 114.62C131.61 112.682 133.892 109.209 134.169 105.16ZM173.033 59.6296C173.033 62.9182 170.357 65.5926 167.067 65.5926C167.004 65.5926 166.944 65.5747 166.882 65.5747C166.84 65.5717 166.801 65.5509 166.756 65.5509C163.713 65.3928 161.3 62.9808 161.142 59.9397C161.139 59.898 161.121 59.8592 161.118 59.8145C161.118 59.7519 161.1 59.6923 161.1 59.6296C161.1 59.567 161.115 59.5104 161.118 59.4508C161.121 59.406 161.142 59.3673 161.145 59.3255C161.303 56.2814 163.716 53.8694 166.759 53.7114C166.801 53.7084 166.84 53.6905 166.885 53.6875C166.944 53.6846 167.004 53.6667 167.067 53.6667C170.357 53.6667 173.033 56.3411 173.033 59.6296ZM116.35 5.96297L116.35 8.94445L110.383 8.94445L110.383 5.96297L116.35 5.96297ZM14.9167 32.7963L14.9167 26.8333L116.35 26.8333L116.35 32.7963L14.9167 32.7963ZM125.3 32.7963L122.317 32.7963L122.317 23.8519C122.317 22.2031 120.983 20.8704 119.333 20.8704L11.9333 20.8704C10.2835 20.8704 8.95 22.2031 8.95 23.8519L8.95 32.7963L5.96666 32.7963L5.96667 5.96296L104.417 5.96297L104.417 11.9259C104.417 13.5747 105.75 14.9074 107.4 14.9074L119.333 14.9074C120.983 14.9074 122.317 13.5747 122.317 11.9259L122.317 5.96297L125.3 5.96297L125.3 13.3362L125.3 29.302L125.3 32.7963ZM131.267 19.636L161.025 49.3763C160.981 49.4032 160.948 49.4449 160.903 49.4717C159.262 50.4705 157.893 51.839 156.896 53.4788C156.873 53.5206 156.831 53.5534 156.807 53.5951L131.267 28.0677L131.267 19.636ZM156.807 65.6671C156.834 65.7119 156.876 65.7447 156.902 65.7894C157.899 67.4262 159.265 68.7917 160.903 69.7875C160.948 69.8144 160.981 69.8561 161.025 69.883L132.579 98.3144C132.555 98.2726 132.514 98.2398 132.49 98.1981C131.493 96.5583 130.124 95.1868 128.483 94.191C128.438 94.1641 128.406 94.1224 128.361 94.0956L156.807 65.6671ZM122.317 98.3889C122.379 98.3889 122.439 98.4068 122.502 98.4068C122.543 98.4098 122.582 98.4306 122.627 98.4306C125.67 98.5887 128.083 101.001 128.242 104.045C128.245 104.089 128.262 104.128 128.268 104.17C128.268 104.233 128.283 104.289 128.283 104.352C128.283 106.898 126.669 109.06 124.42 109.912C124.381 109.924 124.342 109.924 124.304 109.939C123.79 110.124 123.304 110.207 122.827 110.264C122.696 110.276 122.57 110.3 122.436 110.303C122.168 110.315 121.917 110.273 121.66 110.249C121.255 110.205 120.867 110.121 120.491 109.999C120.255 109.918 120.017 109.847 119.796 109.733C119.676 109.677 119.563 109.608 119.45 109.546C119.068 109.319 118.695 109.069 118.349 108.758C118.331 108.744 118.31 108.738 118.292 108.723C117.105 107.631 116.35 106.084 116.35 104.352C116.35 101.063 119.026 98.3889 122.317 98.3889ZM164.083 155.037L38.7833 155.037L38.7833 152.056L116.35 152.056L125.3 152.056L164.083 152.056L164.083 155.037ZM122.317 146.093L119.333 146.093L119.333 115.89C119.438 115.917 119.545 115.929 119.65 115.953C119.843 115.998 120.037 116.033 120.231 116.066C120.917 116.191 121.613 116.278 122.317 116.278L122.317 146.093Z" fill="white"/>
</svg>
